<svg id="logo" xmlns="http://www.w3.org/2000/svg" xmlns:xlink="http://www.w3.org/1999/xlink" viewBox="0 0 215.91 181.3">
    <defs>
        <clipPath id="clippath">
            <path d="m125.26,0c-27.64,0-52.39,12.38-69.02,31.88h66.2v125.32h-58.72c16.16,14.95,37.78,24.09,61.53,24.09,50.06,0,90.65-40.58,90.65-90.65S175.32,0,125.26,0Z" fill="none"></path>
        </clipPath>
        <clipPath id="clippath-1">
            <path d="m125.26,0c-27.64,0-52.39,12.38-69.02,31.88h66.2v125.32l-32.73-.12-25.99.12c16.16,14.95,37.78,24.09,61.53,24.09,50.06,0,90.65-40.58,90.65-90.65S175.32,0,125.26,0Z" fill="none"></path>
        </clipPath>
    </defs>
    <style type="text/css">
        #logoims {fill:#1f2024;}
    </style>    
    <g id="logo">
        <g>
            <g clip-path="url(#clippath)">
                <circle cx="125.89" cy="90.32" r="86.9" fill="none" stroke="#e2e032" stroke-miterlimit="10" stroke-width="5.67"></circle>
            </g>
            <g clip-path="url(#clippath-1)">
                <circle cx="125.89" cy="90.32" r="74.34" fill="none" stroke="#1a9cd9" stroke-miterlimit="10" stroke-width="5.67"></circle>
            </g>
            <g id="logoims">
                <path d="m149.52,100.75l2.2-1.91c0,2.22-1.52,5.82-4.14,8.23-1.76,1.62-4.43,2.61-5.92,2.61h-33.48c-3.7,0-6.73-3.03-6.73-6.73h0c0-3.7,3.03-6.73,6.73-6.73h33.48c3.7,0,7.85.82,7.85,4.52Z" fill="#202125"></path>
                <path d="m99.76,95.64c-.1,11.27-1.15,14.16-8.23,14.25-5.43.07-6.82-3.97-6.8-12.98l-.21-24.92c0-3.7-3.06-6.73-6.74-6.72-3.7,0-6.72,3.02-6.72,6.72,0,0-.41,11.11-.59,23.54-.13,9.34-1.7,14.63-9.02,14.56-6.67-.06-7.44-5.55-7.64-14.96-.09-4.3-.13-23.15-.13-23.15,0-3.69-3.04-6.73-6.72-6.72-3.7,0-6.74,3.02-6.74,6.72,0,0,.02,12.88-.03,22.63-.05,10.83.49,15.33-7.9,15.41-6.8.07-6.81-5.11-6.82-12.8v-14.83h-.02c.59-7.21-1.61-16.82,1.99-22.99,8.09-12.9,22.2-12.73,32.69-1.46,1.73,1.83,3.35,1.61,4.99-.69,8.66-10.91,24.11-10.3,31.07.38,5.49,9.67,3.56,26.27,3.56,37.98Z"></path>
                <rect x=".33" y="67.75" width="13.45" height="42.65" rx="6.73" ry="6.73"></rect>
                <circle cx="6.99" cy="56.85" r="6.99"></circle>
                <path d="m120.65,96.25c4.14,1.58,22.08,3.4,18.99-6.42-2.28-7.25-26.63,1.06-34.09-14.5-6.16-10.27.13-25.66,12.3-25.9,1.88-.2,9.73.07,11.63.07,7.84.85,26.25-2.92,22.47,8.42-1.89,5.66-10.99,4.26-16.32,4.98-3.08-.04-8.92.02-12.91.12-5.65.08-6.13,8.62-.79,9.49,7.53,2.87,23.73,2.48,27.7,7.52,6.94,7.15,3.31,29.35-7.59,28.97-13.06-.46-36.36,2.72-39.09-1.81-3.86-4.06.37-11.58,5.62-10.99"></path>
                <g>
                    <path d="m12.52,122.34c0,.65-.13,1.25-.38,1.83-.25.57-.6,1.06-1.05,1.46.35.2.66.45.94.73.28.29.52.6.73.94.2.34.36.71.47,1.1s.16.8.16,1.22c0,.65-.12,1.28-.36,1.87-.24.59-.57,1.12-.99,1.57-.42.45-.92.81-1.49,1.08-.57.27-1.2.4-1.86.4H1.32c-.15,0-.27-.04-.37-.12-.1-.08-.15-.21-.15-.37v-15.7c0-.36.17-.54.52-.54h6.61c.65,0,1.26.12,1.82.35s1.04.55,1.45.96c.41.41.74.88.97,1.44.23.55.35,1.15.35,1.8Zm-2.21,0c0-.35-.06-.67-.17-.96s-.28-.55-.5-.76-.47-.38-.76-.5-.62-.17-.97-.17H2.96v4.89h4.93c.35,0,.67-.06.96-.19.3-.13.55-.3.77-.53.21-.23.38-.49.51-.8.12-.3.18-.63.18-.99Zm-7.36,4.65v5.39h5.7c.34,0,.67-.08.98-.23.31-.15.58-.35.81-.6.23-.25.41-.54.54-.88.13-.33.2-.69.2-1.05s-.07-.69-.2-1c-.13-.32-.31-.59-.53-.83-.23-.24-.49-.43-.8-.57-.31-.14-.64-.21-.99-.21H2.96Z"></path>
                    <path d="m19.96,127.4c0-1.01.2-1.97.59-2.87.4-.9.93-1.68,1.6-2.36.67-.68,1.46-1.21,2.35-1.6s1.84-.59,2.85-.59c.67,0,1.32.09,1.95.26.63.18,1.22.43,1.76.76.55.33,1.05.72,1.5,1.17.45.45.84.95,1.17,1.5.33.55.58,1.14.76,1.77.18.63.26,1.28.26,1.96s-.09,1.33-.26,1.96c-.18.63-.43,1.22-.76,1.76-.33.55-.72,1.05-1.17,1.5-.45.45-.95.84-1.5,1.16-.55.32-1.14.57-1.76.75s-1.28.26-1.95.26-1.32-.09-1.94-.26c-.63-.18-1.22-.43-1.77-.75-.55-.32-1.05-.71-1.5-1.16-.45-.45-.84-.95-1.16-1.5-.32-.55-.57-1.14-.76-1.76-.18-.63-.27-1.28-.27-1.96Zm2.24,0c0,.71.14,1.39.41,2.03.27.64.64,1.2,1.1,1.68s1.01.86,1.63,1.15c.62.29,1.29.43,2.01.43s1.37-.14,1.99-.43c.62-.28,1.16-.67,1.62-1.15.46-.48.83-1.04,1.09-1.68.27-.64.4-1.31.4-2.03s-.13-1.37-.4-2.02-.63-1.22-1.09-1.71c-.46-.49-1-.88-1.62-1.18-.62-.29-1.28-.44-1.99-.44s-1.38.15-2.01.44c-.62.29-1.17.69-1.63,1.18-.47.49-.83,1.06-1.1,1.71-.27.65-.41,1.32-.41,2.02Z"></path>
                    <path d="m44.32,121.73c.09-.17.22-.36.39-.56s.37-.39.61-.56c.24-.17.51-.32.82-.43.31-.12.65-.17,1.02-.17.41,0,.77.02,1.1.05.33.03.64.09.93.18.29.09.58.2.85.35.27.15.56.33.86.56.09.07.19.15.3.26.11.11.16.23.16.37,0,.08-.02.16-.06.23l-.66,1.02c-.11.13-.21.19-.32.19-.06,0-.12-.02-.17-.06-.05-.04-.12-.09-.19-.14-.47-.32-.92-.55-1.36-.69-.44-.15-.91-.22-1.4-.22-.38,0-.74.07-1.08.21-.35.14-.65.35-.92.61-.27.27-.48.59-.64.98-.16.39-.24.82-.24,1.31v8.82c0,.33-.17.5-.5.5h-1.17c-.35,0-.52-.17-.52-.5v-13.32c0-.15.05-.27.15-.36s.21-.14.35-.14h1.17c.16,0,.28.05.38.15.09.1.14.21.14.35v1.01Z"></path>
                    <path d="m70.61,134.53c-.33,0-.5-.17-.5-.5v-1.36c-.65.66-1.4,1.18-2.25,1.56-.86.38-1.78.56-2.78.56-.67,0-1.32-.09-1.94-.26s-1.22-.43-1.76-.75-1.05-.71-1.5-1.16c-.45-.45-.84-.95-1.17-1.5-.33-.55-.58-1.14-.75-1.76-.18-.63-.27-1.28-.27-1.96s.09-1.33.27-1.96c.18-.63.43-1.22.75-1.77.33-.55.72-1.05,1.17-1.5.45-.45.95-.84,1.5-1.17s1.14-.58,1.76-.76c.62-.18,1.27-.26,1.95-.26,1,0,1.93.19,2.78.57.86.38,1.61.9,2.25,1.56v-5.65c0-.14.05-.25.14-.35.09-.1.22-.15.38-.15h1.17c.14,0,.25.05.35.14s.15.21.15.36v17.57c0,.33-.18.5-.53.5h-1.16Zm-.38-7.13c0-.7-.14-1.37-.41-2.02s-.64-1.22-1.1-1.71c-.47-.49-1.01-.88-1.64-1.18-.63-.29-1.29-.44-2-.44s-1.37.15-1.99.44c-.62.29-1.16.69-1.62,1.18-.46.49-.83,1.06-1.09,1.71-.27.65-.4,1.32-.4,2.02s.13,1.39.4,2.03c.27.64.63,1.2,1.09,1.68s1,.86,1.62,1.15c.62.29,1.28.43,1.99.43s1.37-.14,2-.43c.63-.28,1.17-.67,1.64-1.15.46-.48.83-1.04,1.1-1.68.27-.64.41-1.31.41-2.03Z"></path>
                    <path d="m90.22,131.25c.07-.06.14-.12.22-.17s.16-.08.24-.08c.11,0,.22.07.33.2.15.2.27.37.37.5.09.13.17.23.23.3.06.08.11.14.14.18.04.05.07.09.09.14.02.05.03.1.03.16,0,.08-.03.17-.1.26s-.17.2-.33.33c-.32.26-.66.49-1.01.69s-.72.39-1.1.53c-.38.15-.79.27-1.21.35-.42.08-.87.12-1.35.12-.67,0-1.32-.09-1.94-.26-.62-.18-1.21-.43-1.76-.76s-1.06-.72-1.51-1.17c-.45-.45-.85-.95-1.18-1.5s-.59-1.14-.77-1.76-.27-1.28-.27-1.96.08-1.33.25-1.96.41-1.22.72-1.77c.31-.55.69-1.05,1.13-1.5.44-.45.94-.84,1.49-1.16.55-.32,1.15-.57,1.79-.75.64-.18,1.32-.26,2.03-.26.56,0,1.12.06,1.68.19.56.13,1.09.31,1.6.56.51.24.99.55,1.44.91.45.36.85.77,1.2,1.24.48.65.84,1.38,1.07,2.21.23.83.34,1.78.33,2.85,0,.35-.16.53-.5.53h-11.88c.13.6.35,1.16.67,1.67.32.51.7.96,1.15,1.34.45.38.94.68,1.49.89s1.11.32,1.7.32c.41,0,.79-.04,1.12-.12.33-.08.64-.18.91-.32.27-.13.53-.28.76-.45.23-.17.46-.34.68-.52l.02-.02Zm-6.17-8.34c-.57.38-1.06.87-1.48,1.45s-.69,1.22-.84,1.92h10.19c-.08-.62-.28-1.19-.58-1.7s-.68-.95-1.14-1.31c-.46-.36-.98-.64-1.55-.84s-1.17-.3-1.79-.3c-.49,0-.97.06-1.45.19-.48.13-.93.32-1.36.59Z"></path>
                    <path d="m113.37,132.63c-.65.66-1.4,1.18-2.25,1.56-.86.38-1.78.57-2.78.57-.67,0-1.32-.09-1.94-.26s-1.22-.43-1.76-.75-1.05-.72-1.5-1.17c-.45-.45-.84-.95-1.17-1.5-.33-.55-.58-1.14-.75-1.77-.18-.63-.27-1.28-.27-1.96s.09-1.33.27-1.96c.18-.63.43-1.22.75-1.76.33-.55.72-1.05,1.17-1.5.45-.45.95-.84,1.5-1.16s1.14-.57,1.76-.75c.62-.18,1.27-.26,1.95-.26,1,0,1.93.19,2.78.57.86.38,1.61.9,2.25,1.56v-1.38c0-.33.17-.5.5-.5h1.16c.35,0,.53.17.53.5v13.33c0,.15-.05.27-.15.36s-.21.14-.35.14h-1.17c-.16,0-.28-.05-.38-.15-.09-.1-.14-.21-.14-.35v-1.41Zm.11-5.29c0-.71-.14-1.38-.41-2.02-.27-.64-.64-1.2-1.1-1.68-.47-.48-1.01-.86-1.64-1.15-.63-.28-1.29-.43-2-.43s-1.37.14-1.99.43c-.62.29-1.16.67-1.62,1.15-.46.48-.83,1.04-1.09,1.68-.27.64-.4,1.32-.4,2.02s.13,1.37.4,2.02c.27.65.63,1.22,1.09,1.71.46.49,1,.88,1.62,1.18.62.29,1.28.44,1.99.44s1.37-.15,2-.44c.63-.29,1.17-.69,1.64-1.18.46-.49.83-1.06,1.1-1.71.27-.65.41-1.32.41-2.02Z"></path>
                    <path d="m132.76,132.87c-.22.26-.45.5-.68.7s-.5.38-.8.52-.63.25-1.01.33-.81.11-1.31.11c-.92,0-1.74-.16-2.44-.48-.71-.32-1.3-.75-1.77-1.31-.48-.55-.84-1.2-1.08-1.94s-.37-1.54-.37-2.39v-7.65c0-.26.07-.45.2-.58.13-.13.3-.19.5-.19h.83c.28,0,.46.06.54.17.08.11.12.3.12.56v7.69c0,.45.06.91.19,1.38.12.47.33.9.61,1.28.28.38.66.69,1.12.94s1.04.36,1.71.36c.43,0,.86-.08,1.29-.23.43-.15.82-.38,1.17-.68s.64-.67.86-1.11.33-.95.33-1.53v-8.33c0-.33.16-.5.5-.5h1.16c.35,0,.53.17.53.5v13.32c0,.15-.05.27-.15.36-.1.09-.21.14-.35.14h-1.17c-.16,0-.28-.05-.38-.15-.09-.1-.14-.21-.14-.35v-.95Z"></path>
                    <path d="m143.82,134.12c-.11.14-.21.24-.31.31-.1.07-.22.11-.37.11h-1.66c-.19,0-.29-.05-.32-.14-.02-.09.02-.21.11-.36l4.84-7.01c-.47-.69-.89-1.31-1.26-1.85s-.72-1.05-1.05-1.52c-.33-.47-.65-.94-.97-1.39-.32-.45-.66-.94-1.02-1.47-.15-.23-.2-.38-.14-.46.06-.08.2-.12.43-.12h1.47c.09,0,.17,0,.23.02.06.02.12.04.18.08.06.04.11.09.16.16.05.06.12.14.19.23l3.04,4.68,3.04-4.68c.07-.09.14-.17.19-.23s.11-.12.16-.16c.06-.04.12-.07.18-.08.06-.01.14-.02.23-.02h1.47c.23,0,.38.04.43.12.06.08,0,.23-.14.46-.37.53-.71,1.02-1.02,1.47-.32.45-.64.92-.97,1.39-.33.47-.68.98-1.05,1.52s-.79,1.16-1.26,1.85l4.83,7.01c.1.15.14.27.11.36-.02.09-.13.14-.32.14h-1.66c-.14,0-.27-.04-.37-.11s-.2-.17-.31-.31l-3.56-5.48-3.56,5.48Z"></path>
                </g>
            </g>
            <rect x="56.03" y="28.78" width="11.6" height="5.7" rx="2.85" ry="2.85" transform="translate(-3.33 55.68) rotate(-47.36)" fill="#e1df36"></rect>
            <rect x="74.01" y="28.86" width="12.41" height="5.62" rx="2.81" ry="2.81" transform="translate(-2.9 54.7) rotate(-37.03)" fill="#1b9bd8"></rect>
            <rect x="64.32" y="154.42" width="12.75" height="5.84" rx="2.92" ry="2.92" transform="translate(22.76 323.04) rotate(-139.67)" fill="#e1df36"></rect>
            <path d="m86.66,156.87l8.06,3.99c1.42.7,3.16.12,3.86-1.3h0c.41-.83,3-1.79,2.23-2.19-1.02-.53-2.81-1.23-3.28-1.52-.08-.05-.17-.1-.26-.14l-8.06-3.99c-1.42-.7-3.16-.12-3.86,1.3h0c-.7,1.42-.12,3.16,1.3,3.86Z" fill="#1b9bd8"></path>
        </g>
    </g>
</svg>