<?xml version="1.0" encoding="UTF-8" standalone="no"?>
<!DOCTYPE svg PUBLIC "-//W3C//DTD SVG 1.0//EN" "http://www.w3.org/TR/2001/REC-SVG-20010904/DTD/svg10.dtd">
<!-- Created with Inkscape (http://www.inkscape.org/) -->
<svg xmlns:svg="http://www.w3.org/2000/svg" xmlns="http://www.w3.org/2000/svg" version="1.0" width="1000" height="300" id="svg5333">
  <defs id="defs5335"/>
  <g id="layer1">
    <g transform="matrix(1.225,0,0,1.225,42.227515,-18.553045)" id="g5418">
      <path d="M -2.3283927,53.405535 L -2.3283927,80.660102 L 174.73477,80.660102 L 174.75835,53.405535 L 85.731127,27.236683 L -2.3283927,53.405535 z" id="path955" style="fill:#00519e;fill-opacity:1;fill-rule:nonzero;stroke:none"/>
      <path d="M 20.683687,88.071175 L 56.375977,88.071175 L 9.2838373,247.82219 L -26.308163,247.82219 L 20.683687,88.071175 z" id="path957" style="fill:#00519e;fill-opacity:1;fill-rule:nonzero;stroke:none"/>
      <path d="M 157.77074,87.994458 L 118.33158,87.994458 L 118.33158,120.61849 L 157.77074,120.61849 L 157.77074,87.994458 z" id="path959" style="fill:#00519e;fill-opacity:1;fill-rule:nonzero;stroke:none"/>
      <path d="M 157.77665,152.11555 L 118.34341,152.11555 L 118.34341,184.73369 L 157.77665,184.73369 L 157.77665,152.11555 z" id="path961" style="fill:#e2001a;fill-opacity:1;fill-rule:nonzero;stroke:none"/>
      <path d="M 157.77074,215.16863 L 118.33158,215.16863 L 118.33158,247.79266 L 157.77074,247.79266 L 157.77074,215.16863 z" id="path963" style="fill:#00519e;fill-opacity:1;fill-rule:nonzero;stroke:none"/>
      <path d="M 208.47402,134.44934 L 240.89151,134.44934 L 240.5375,139.4589 L 227.25538,139.4589 L 227.25538,184.24986 L 221.61447,184.24986 L 221.61447,139.4589 L 208.47402,139.4589 L 208.47402,134.44934 z" id="path965" style="fill:#e2001a;fill-opacity:1;fill-rule:nonzero;stroke:none"/>
      <path d="M 208.47402,134.44934 L 240.89151,134.44934 L 240.5375,139.4589 L 227.25538,139.4589 L 227.25538,184.24986 L 221.61447,184.24986 L 221.61447,139.4589 L 208.47402,139.4589 L 208.47402,134.44934 z" id="path967" style="fill:none;stroke:#e2001a;stroke-width:0.70806378;stroke-linecap:butt;stroke-linejoin:miter;stroke-miterlimit:4;stroke-dasharray:none;stroke-opacity:1"/>
      <path d="M 239.26298,150.32178 L 257.63724,150.32178 L 257.10029,153.70869 L 243.32843,153.70869 L 243.32843,164.77219 L 254.8463,164.77219 L 254.8463,168.3066 L 243.32843,168.3066 L 243.32843,180.70951 L 258.12696,180.70951 L 258.12696,184.24986 L 239.26298,184.24986 L 239.26298,150.32178 z" id="path969" style="fill:#00519e;fill-opacity:1;fill-rule:nonzero;stroke:none"/>
      <path d="M 239.26298,150.32178 L 257.63724,150.32178 L 257.10029,153.70869 L 243.32843,153.70869 L 243.32843,164.77219 L 254.8463,164.77219 L 254.8463,168.3066 L 243.32843,168.3066 L 243.32843,180.70951 L 258.12696,180.70951 L 258.12696,184.24986 L 239.26298,184.24986 L 239.26298,150.32178 z" id="path971" style="fill:none;stroke:#00519e;stroke-width:0.70806378;stroke-linecap:butt;stroke-linejoin:miter;stroke-miterlimit:4;stroke-dasharray:none;stroke-opacity:1"/>
      <path d="M 284.63806,152.41647 L 282.48436,155.05402 C 280.47231,153.56118 278.56641,152.91212 276.11178,152.91212 C 272.24105,152.91212 269.45008,154.95371 267.83338,158.78904 C 266.84796,161.08435 266.41131,163.82219 266.41131,167.85815 C 266.41131,171.14476 266.70634,173.09192 267.49112,175.0804 C 269.20226,179.37009 272.68359,181.35859 276.50713,181.35859 C 279.00305,181.35859 280.91482,180.70951 283.07442,179.16946 L 285.22811,182.00764 C 282.53159,183.80141 279.19777,184.79859 275.86988,184.79859 C 267.68581,184.79859 262.04491,177.62354 262.04491,167.26219 C 262.04491,157.10149 268.02807,149.62551 276.1649,149.62551 C 279.39838,149.62551 282.33683,150.62271 284.63806,152.41647" id="path973" style="fill:#00519e;fill-opacity:1;fill-rule:nonzero;stroke:none"/>
      <path d="M 284.63806,152.41647 L 282.48436,155.05402 C 280.47231,153.56118 278.56641,152.91212 276.11178,152.91212 C 272.24105,152.91212 269.45008,154.95371 267.83338,158.78904 C 266.84796,161.08435 266.41131,163.82219 266.41131,167.85815 C 266.41131,171.14476 266.70634,173.09192 267.49112,175.0804 C 269.20226,179.37009 272.68359,181.35859 276.50713,181.35859 C 279.00305,181.35859 280.91482,180.70951 283.07442,179.16946 L 285.22811,182.00764 C 282.53159,183.80141 279.19777,184.79859 275.86988,184.79859 C 267.68581,184.79859 262.04491,177.62354 262.04491,167.26219 C 262.04491,157.10149 268.02807,149.62551 276.1649,149.62551 C 279.39838,149.62551 282.33683,150.62271 284.63806,152.41647 z" id="path975" style="fill:none;stroke:#00519e;stroke-width:0.70806378;stroke-linecap:butt;stroke-linejoin:miter;stroke-miterlimit:4;stroke-dasharray:none;stroke-opacity:1"/>
      <path d="M 289.88364,150.07396 L 293.80747,150.07396 L 293.80747,164.37094 L 307.96877,164.37094 L 307.96877,150.07396 L 311.98704,150.07396 L 311.98704,184.24986 L 307.96877,184.24986 L 307.96877,167.71064 L 293.80747,167.71064 L 293.80747,184.24986 L 289.88364,184.24986 L 289.88364,150.07396 z" id="path977" style="fill:#00519e;fill-opacity:1;fill-rule:nonzero;stroke:none"/>
      <path d="M 289.88364,150.07396 L 293.80747,150.07396 L 293.80747,164.37094 L 307.96877,164.37094 L 307.96877,150.07396 L 311.98704,150.07396 L 311.98704,184.24986 L 307.96877,184.24986 L 307.96877,167.71064 L 293.80747,167.71064 L 293.80747,184.24986 L 289.88364,184.24986 L 289.88364,150.07396 z" id="path979" style="fill:none;stroke:#00519e;stroke-width:0.70806378;stroke-linecap:butt;stroke-linejoin:miter;stroke-miterlimit:4;stroke-dasharray:none;stroke-opacity:1"/>
      <path d="M 319.04406,150.17425 L 323.6996,150.17425 L 334.87517,171.94133 C 336.09659,174.38415 338.00836,179.06917 338.00836,179.06917 C 338.00836,179.06917 337.61892,173.18636 337.56585,168.70785 L 337.41834,150.17425 L 341.38937,150.17425 L 341.38937,184.24986 L 337.1764,184.24986 L 326.39613,163.37376 C 324.82659,160.28776 323.25704,157.04839 322.57256,155.20153 C 322.81451,158.09278 322.96201,161.08435 323.01514,164.47126 L 323.20984,184.24986 L 319.04406,184.24986 L 319.04406,150.17425" id="path981" style="fill:#00519e;fill-opacity:1;fill-rule:nonzero;stroke:none"/>
      <path d="M 319.04406,150.17425 L 323.6996,150.17425 L 334.87517,171.94133 C 336.09659,174.38415 338.00836,179.06917 338.00836,179.06917 C 338.00836,179.06917 337.61892,173.18636 337.56585,168.70785 L 337.41834,150.17425 L 341.38937,150.17425 L 341.38937,184.24986 L 337.1764,184.24986 L 326.39613,163.37376 C 324.82659,160.28776 323.25704,157.04839 322.57256,155.20153 C 322.81451,158.09278 322.96201,161.08435 323.01514,164.47126 L 323.20984,184.24986 L 319.04406,184.24986 L 319.04406,150.17425 z" id="path983" style="fill:none;stroke:#00519e;stroke-width:0.70806378;stroke-linecap:butt;stroke-linejoin:miter;stroke-miterlimit:4;stroke-dasharray:none;stroke-opacity:1"/>
      <path d="M 350.21066,150.07396 L 354.13454,150.07396 L 354.13454,184.24986 L 350.21066,184.24986 L 350.21066,150.07396 z" id="path985" style="fill:#00519e;fill-opacity:1;fill-rule:nonzero;stroke:none"/>
      <path d="M 350.21066,150.07396 L 354.13454,150.07396 L 354.13454,184.24986 L 350.21066,184.24986 L 350.21066,150.07396 z" id="path987" style="fill:none;stroke:#00519e;stroke-width:0.70806378;stroke-linecap:butt;stroke-linejoin:miter;stroke-miterlimit:4;stroke-dasharray:none;stroke-opacity:1"/>
      <path d="M 382.55738,152.6171 L 380.79312,155.55555 C 377.55964,153.41365 375.50036,152.66429 372.60908,152.66429 C 368.39022,152.66429 365.89431,154.80618 365.89431,158.29341 C 365.89431,161.03125 367.51101,162.63029 371.47619,163.87531 L 375.35282,165.1203 C 378.33852,166.06441 379.95525,166.96128 381.28286,168.55441 C 382.65179,170.14757 383.48968,172.44286 383.48968,174.58476 C 383.48968,177.77105 381.77262,180.76262 378.83414,182.80421 C 376.62734,184.24986 374.37335,184.8989 371.28145,184.8989 C 367.2632,184.8989 363.835,183.90172 360.50122,181.80701 L 362.26545,178.62072 C 365.06233,180.66231 367.90047,181.55919 371.28145,181.55919 C 373.8305,181.55919 375.20531,181.15795 376.62734,180.06638 C 378.2441,178.82135 379.02888,177.17511 379.02888,175.18072 C 379.02888,172.14196 377.0699,170.05315 372.99853,168.80815 L 369.61753,167.75785 C 366.57876,166.81376 364.96201,166.11748 363.64028,164.71908 C 362.26545,163.22625 361.53378,161.3322 361.53378,159.14306 C 361.53378,153.31333 365.89431,149.32461 372.40849,149.32461 C 376.0373,149.32461 379.37109,150.42208 382.55738,152.6171" id="path989" style="fill:#00519e;fill-opacity:1;fill-rule:nonzero;stroke:none"/>
      <path d="M 382.55738,152.6171 L 380.79312,155.55555 C 377.55964,153.41365 375.50036,152.66429 372.60908,152.66429 C 368.39022,152.66429 365.89431,154.80618 365.89431,158.29341 C 365.89431,161.03125 367.51101,162.63029 371.47619,163.87531 L 375.35282,165.1203 C 378.33852,166.06441 379.95525,166.96128 381.28286,168.55441 C 382.65179,170.14757 383.48968,172.44286 383.48968,174.58476 C 383.48968,177.77105 381.77262,180.76262 378.83414,182.80421 C 376.62734,184.24986 374.37335,184.8989 371.28145,184.8989 C 367.2632,184.8989 363.835,183.90172 360.50122,181.80701 L 362.26545,178.62072 C 365.06233,180.66231 367.90047,181.55919 371.28145,181.55919 C 373.8305,181.55919 375.20531,181.15795 376.62734,180.06638 C 378.2441,178.82135 379.02888,177.17511 379.02888,175.18072 C 379.02888,172.14196 377.0699,170.05315 372.99853,168.80815 L 369.61753,167.75785 C 366.57876,166.81376 364.96201,166.11748 363.64028,164.71908 C 362.26545,163.22625 361.53378,161.3322 361.53378,159.14306 C 361.53378,153.31333 365.89431,149.32461 372.40849,149.32461 C 376.0373,149.32461 379.37109,150.42208 382.55738,152.6171 z" id="path991" style="fill:none;stroke:#00519e;stroke-width:0.70806378;stroke-linecap:butt;stroke-linejoin:miter;stroke-miterlimit:4;stroke-dasharray:none;stroke-opacity:1"/>
      <path d="M 411.07465,152.41647 L 408.92098,155.05402 C 406.90887,153.56118 405.00303,152.91212 402.54838,152.91212 C 398.67766,152.91212 395.88669,154.95371 394.26406,158.78904 C 393.28456,161.08435 392.842,163.82219 392.842,167.85815 C 392.842,171.14476 393.14295,173.09192 393.92179,175.0804 C 395.63887,179.37009 399.12017,181.35859 402.93782,181.35859 C 405.43966,181.35859 407.35141,180.70951 409.50512,179.16946 L 411.66472,182.00764 C 408.96816,183.80141 405.63437,184.79859 402.30646,184.79859 C 394.11655,184.79859 388.48152,177.62354 388.48152,167.26219 C 388.48152,157.10149 394.46465,149.62551 402.59561,149.62551 C 405.83499,149.62551 408.77347,150.62271 411.07465,152.41647" id="path993" style="fill:#00519e;fill-opacity:1;fill-rule:nonzero;stroke:none"/>
      <path d="M 411.07465,152.41647 L 408.92098,155.05402 C 406.90887,153.56118 405.00303,152.91212 402.54838,152.91212 C 398.67766,152.91212 395.88669,154.95371 394.26406,158.78904 C 393.28456,161.08435 392.842,163.82219 392.842,167.85815 C 392.842,171.14476 393.14295,173.09192 393.92179,175.0804 C 395.63887,179.37009 399.12017,181.35859 402.93782,181.35859 C 405.43966,181.35859 407.35141,180.70951 409.50512,179.16946 L 411.66472,182.00764 C 408.96816,183.80141 405.63437,184.79859 402.30646,184.79859 C 394.11655,184.79859 388.48152,177.62354 388.48152,167.26219 C 388.48152,157.10149 394.46465,149.62551 402.59561,149.62551 C 405.83499,149.62551 408.77347,150.62271 411.07465,152.41647 z" id="path995" style="fill:none;stroke:#00519e;stroke-width:0.70806378;stroke-linecap:butt;stroke-linejoin:miter;stroke-miterlimit:4;stroke-dasharray:none;stroke-opacity:1"/>
      <path d="M 416.61524,150.07396 L 420.53321,150.07396 L 420.53321,164.37094 L 434.70036,164.37094 L 434.70036,150.07396 L 438.71275,150.07396 L 438.71275,184.24986 L 434.70036,184.24986 L 434.70036,167.71064 L 420.53321,167.71064 L 420.53321,184.24986 L 416.61524,184.24986 L 416.61524,150.07396 z" id="path997" style="fill:#00519e;fill-opacity:1;fill-rule:nonzero;stroke:none"/>
      <path d="M 416.61524,150.07396 L 420.53321,150.07396 L 420.53321,164.37094 L 434.70036,164.37094 L 434.70036,150.07396 L 438.71275,150.07396 L 438.71275,184.24986 L 434.70036,184.24986 L 434.70036,167.71064 L 420.53321,167.71064 L 420.53321,184.24986 L 416.61524,184.24986 L 416.61524,150.07396 z" id="path999" style="fill:none;stroke:#00519e;stroke-width:0.70806378;stroke-linecap:butt;stroke-linejoin:miter;stroke-miterlimit:4;stroke-dasharray:none;stroke-opacity:1"/>
      <path d="M 446.60765,150.32178 L 464.98192,150.32178 L 464.44496,153.70869 L 450.67313,153.70869 L 450.67313,164.77219 L 462.19098,164.77219 L 462.19098,168.3066 L 450.67313,168.3066 L 450.67313,180.70951 L 465.47168,180.70951 L 465.47168,184.24986 L 446.60765,184.24986 L 446.60765,150.32178 z" id="path1001" style="fill:#00519e;fill-opacity:1;fill-rule:nonzero;stroke:none"/>
      <path d="M 446.60765,150.32178 L 464.98192,150.32178 L 464.44496,153.70869 L 450.67313,153.70869 L 450.67313,164.77219 L 462.19098,164.77219 L 462.19098,168.3066 L 450.67313,168.3066 L 450.67313,180.70951 L 465.47168,180.70951 L 465.47168,184.24986 L 446.60765,184.24986 L 446.60765,150.32178 z" id="path1003" style="fill:none;stroke:#00519e;stroke-width:0.70806378;stroke-linecap:butt;stroke-linejoin:miter;stroke-miterlimit:4;stroke-dasharray:none;stroke-opacity:1"/>
      <path d="M 221.93902,196.89467 L 227.57402,196.89467 L 227.57402,246.65388 L 221.93902,246.65388 L 221.93902,196.89467 z M 245.77716,196.89467 L 252.91091,196.89467 L 234.16491,220.25486 L 252.77519,246.65388 L 245.64144,246.65388 L 227.84545,220.3257 L 245.77716,196.89467 z" id="path1005" style="fill:#00519e;fill-opacity:1;fill-rule:nonzero;stroke:none"/>
      <path d="M 221.93902,196.89467 L 227.57402,196.89467 L 227.57402,246.65388 L 221.93902,246.65388 L 221.93902,196.89467 z M 245.77716,196.89467 L 252.91091,196.89467 L 234.16491,220.25486 L 252.77519,246.65388 L 245.64144,246.65388 L 227.84545,220.3257 L 245.77716,196.89467 z" id="path1015" style="fill:none;stroke:#00519e;stroke-width:0.70806378;stroke-linecap:butt;stroke-linejoin:miter;stroke-miterlimit:4;stroke-dasharray:none;stroke-opacity:1"/>
      <path d="M 283.40487,196.89467 L 298.82293,246.65388 L 292.50937,246.65388 L 288.08988,231.34788 L 270.70101,231.34788 L 266.21662,246.65388 L 260.58159,246.65388 L 276.13538,196.89467 L 283.40487,196.89467 z M 272.26464,226.49175 L 286.66195,226.49175 C 286.66195,226.49175 282.9977,214.08883 281.77628,209.80503 L 279.53411,202.11665 L 277.2211,209.4451 C 276.94967,210.46002 272.26464,226.49175 272.26464,226.49175" id="path1017" style="fill:#00519e;fill-opacity:1;fill-rule:nonzero;stroke:none"/>
      <path d="M 283.40487,196.89467 L 298.82293,246.65388 L 292.50937,246.65388 L 288.08988,231.34788 L 270.70101,231.34788 L 266.21662,246.65388 L 260.58159,246.65388 L 276.13538,196.89467 L 283.40487,196.89467 z M 272.26464,226.49175 L 286.66195,226.49175 C 286.66195,226.49175 282.9977,214.08883 281.77628,209.80503 L 279.53411,202.11665 L 277.2211,209.4451 C 276.94967,210.46002 272.26464,226.49175 272.26464,226.49175 z" id="path1027" style="fill:none;stroke:#00519e;stroke-width:0.70806378;stroke-linecap:butt;stroke-linejoin:miter;stroke-miterlimit:4;stroke-dasharray:none;stroke-opacity:1"/>
      <path d="M 309.34949,196.89467 L 314.78388,196.89467 L 314.78388,246.65388 L 309.34949,246.65388 L 309.34949,196.89467 z" id="path1029" style="fill:#00519e;fill-opacity:1;fill-rule:nonzero;stroke:none"/>
      <path d="M 309.34949,196.89467 L 314.78388,196.89467 L 314.78388,246.65388 L 309.34949,246.65388 L 309.34949,196.89467 z" id="path1039" style="fill:none;stroke:#00519e;stroke-width:0.70806378;stroke-linecap:butt;stroke-linejoin:miter;stroke-miterlimit:4;stroke-dasharray:none;stroke-opacity:1"/>
      <path d="M 357.23233,200.5943 L 354.7836,204.87219 C 350.29917,201.75673 347.44924,200.66512 343.44276,200.66512 C 337.60122,200.66512 334.13764,203.78648 334.13764,208.86686 C 334.13764,212.85563 336.37983,215.17452 341.87913,216.98597 L 347.24271,218.80335 C 351.38488,220.17819 353.62707,221.48809 355.46213,223.80701 C 357.36802,226.1259 358.51862,229.4656 358.51862,232.58111 C 358.51862,237.22481 356.1407,241.57942 352.06934,244.55329 C 349.01288,246.65388 345.88557,247.59793 341.6077,247.59793 C 336.0376,247.59793 331.28178,246.14641 326.66165,243.10174 L 329.11036,238.45804 C 332.98111,241.43191 336.92269,242.7359 341.6077,242.7359 C 345.13621,242.7359 347.04207,242.15766 349.01288,240.5645 C 351.24917,238.75304 352.34077,236.35743 352.34077,233.45435 C 352.34077,229.02899 349.62062,225.98433 343.98561,224.16693 L 339.30058,222.64459 C 335.08762,221.26978 332.84542,220.25486 331.01035,218.21921 C 329.11036,216.04189 328.08956,213.28636 328.08956,210.09416 C 328.08956,201.60922 334.13764,195.80897 343.17135,195.80897 C 348.1986,195.80897 352.8128,197.40211 357.23233,200.5943" id="path1041" style="fill:#00519e;fill-opacity:1;fill-rule:nonzero;stroke:none"/>
      <path d="M 357.23233,200.5943 L 354.7836,204.87219 C 350.29917,201.75673 347.44924,200.66512 343.44276,200.66512 C 337.60122,200.66512 334.13764,203.78648 334.13764,208.86686 C 334.13764,212.85563 336.37983,215.17452 341.87913,216.98597 L 347.24271,218.80335 C 351.38488,220.17819 353.62707,221.48809 355.46213,223.80701 C 357.36802,226.1259 358.51862,229.4656 358.51862,232.58111 C 358.51862,237.22481 356.1407,241.57942 352.06934,244.55329 C 349.01288,246.65388 345.88557,247.59793 341.6077,247.59793 C 336.0376,247.59793 331.28178,246.14641 326.66165,243.10174 L 329.11036,238.45804 C 332.98111,241.43191 336.92269,242.7359 341.6077,242.7359 C 345.13621,242.7359 347.04207,242.15766 349.01288,240.5645 C 351.24917,238.75304 352.34077,236.35743 352.34077,233.45435 C 352.34077,229.02899 349.62062,225.98433 343.98561,224.16693 L 339.30058,222.64459 C 335.08762,221.26978 332.84542,220.25486 331.01035,218.21921 C 329.11036,216.04189 328.08956,213.28636 328.08956,210.09416 C 328.08956,201.60922 334.13764,195.80897 343.17135,195.80897 C 348.1986,195.80897 352.8128,197.40211 357.23233,200.5943 z" id="path1051" style="fill:none;stroke:#00519e;stroke-width:0.70806378;stroke-linecap:butt;stroke-linejoin:miter;stroke-miterlimit:4;stroke-dasharray:none;stroke-opacity:1"/>
      <path d="M 369.3815,197.26053 L 394.85409,197.26053 L 394.10474,202.18744 L 375.02241,202.18744 L 375.02241,218.29591 L 390.98335,218.29591 L 390.98335,223.44115 L 375.02241,223.44115 L 375.02241,241.5027 L 395.53266,241.5027 L 395.53266,246.65388 L 369.3815,246.65388 L 369.3815,197.26053 z" id="path1053" style="fill:#00519e;fill-opacity:1;fill-rule:nonzero;stroke:none"/>
      <path d="M 369.3815,197.26053 L 394.85409,197.26053 L 394.10474,202.18744 L 375.02241,202.18744 L 375.02241,218.29591 L 390.98335,218.29591 L 390.98335,223.44115 L 375.02241,223.44115 L 375.02241,241.5027 L 395.53266,241.5027 L 395.53266,246.65388 L 369.3815,246.65388 L 369.3815,197.26053 z" id="path1063" style="fill:none;stroke:#00519e;stroke-width:0.70806378;stroke-linecap:butt;stroke-linejoin:miter;stroke-miterlimit:4;stroke-dasharray:none;stroke-opacity:1"/>
      <path d="M 407.68776,196.97139 L 418.55652,196.97139 C 424.94088,196.97139 428.06819,198.1987 430.30448,200.15769 C 432.41096,201.97502 434.9246,205.30883 434.9246,210.60752 C 434.9246,218.80335 429.96816,224.24365 422.56298,224.24365 L 421.88445,224.24365 C 424.05584,226.1259 425.61947,228.45071 426.56947,229.82554 C 427.51942,231.20625 428.74085,233.16526 430.37532,235.62577 C 432.07465,238.31053 437.30252,246.65388 437.30252,246.65388 L 430.30448,246.65388 C 429.21879,244.04581 428.74085,243.10174 426.70516,239.76205 C 423.78442,235.04751 420.93445,230.69882 418.42081,227.43583 C 416.58576,224.96352 415.56496,224.31445 413.25786,224.24365 L 413.25786,246.65388 L 407.68776,246.65388 L 407.68776,196.97139 z M 413.32275,201.97502 L 413.32275,220.54401 L 418.28511,220.54401 C 422.42729,220.54401 425.00584,219.81823 426.70516,218.00676 C 428.26881,216.47853 429.08307,213.79379 429.08307,210.5308 C 429.08307,207.2678 427.18309,204.07563 424.53377,202.98993 C 423.04091,202.33495 421.20586,201.97502 418.69223,201.97502 L 413.32275,201.97502" id="path1065" style="fill:#00519e;fill-opacity:1;fill-rule:nonzero;stroke:none"/>
      <path d="M 407.68776,196.97139 L 418.55652,196.97139 C 424.94088,196.97139 428.06819,198.1987 430.30448,200.15769 C 432.41096,201.97502 434.9246,205.30883 434.9246,210.60752 C 434.9246,218.80335 429.96816,224.24365 422.56298,224.24365 L 421.88445,224.24365 C 424.05584,226.1259 425.61947,228.45071 426.56947,229.82554 C 427.51942,231.20625 428.74085,233.16526 430.37532,235.62577 C 432.07465,238.31053 437.30252,246.65388 437.30252,246.65388 L 430.30448,246.65388 C 429.21879,244.04581 428.74085,243.10174 426.70516,239.76205 C 423.78442,235.04751 420.93445,230.69882 418.42081,227.43583 C 416.58576,224.96352 415.56496,224.31445 413.25786,224.24365 L 413.25786,246.65388 L 407.68776,246.65388 L 407.68776,196.97139 z M 413.32275,201.97502 L 413.32275,220.54401 L 418.28511,220.54401 C 422.42729,220.54401 425.00584,219.81823 426.70516,218.00676 C 428.26881,216.47853 429.08307,213.79379 429.08307,210.5308 C 429.08307,207.2678 427.18309,204.07563 424.53377,202.98993 C 423.04091,202.33495 421.20586,201.97502 418.69223,201.97502 L 413.32275,201.97502 z" id="path1075" style="fill:none;stroke:#00519e;stroke-width:0.70806378;stroke-linecap:butt;stroke-linejoin:miter;stroke-miterlimit:4;stroke-dasharray:none;stroke-opacity:1"/>
      <path d="M 477.03081,200.5943 L 474.58799,204.87219 C 470.10358,201.75673 467.2536,200.66512 463.24718,200.66512 C 457.40562,200.66512 453.94202,203.78648 453.94202,208.86686 C 453.94202,212.85563 456.17831,215.17452 461.68352,216.98597 L 467.0471,218.80335 C 471.18925,220.17819 473.43148,221.48809 475.26652,223.80701 C 477.17241,226.1259 478.32303,229.4656 478.32303,232.58111 C 478.32303,237.22481 475.94511,241.57942 471.87372,244.55329 C 468.81725,246.65388 465.68998,247.59793 461.4121,247.59793 C 455.84199,247.59793 451.08618,246.14641 446.46605,243.10174 L 448.91477,238.45804 C 452.7855,241.43191 456.72708,242.7359 461.4121,242.7359 C 464.94059,242.7359 466.84649,242.15766 468.81725,240.5645 C 471.05946,238.75304 472.14516,236.35743 472.14516,233.45435 C 472.14516,229.02899 469.42503,225.98433 463.79002,224.16693 L 459.10499,222.64459 C 454.892,221.26978 452.64981,220.25486 450.81476,218.21921 C 448.91477,216.04189 447.89398,213.28636 447.89398,210.09416 C 447.89398,201.60922 453.94202,195.80897 462.97573,195.80897 C 467.99708,195.80897 472.6172,197.40211 477.03081,200.5943" id="path1077" style="fill:#00519e;fill-opacity:1;fill-rule:nonzero;stroke:none"/>
      <path d="M 477.03081,200.5943 L 474.58799,204.87219 C 470.10358,201.75673 467.2536,200.66512 463.24718,200.66512 C 457.40562,200.66512 453.94202,203.78648 453.94202,208.86686 C 453.94202,212.85563 456.17831,215.17452 461.68352,216.98597 L 467.0471,218.80335 C 471.18925,220.17819 473.43148,221.48809 475.26652,223.80701 C 477.17241,226.1259 478.32303,229.4656 478.32303,232.58111 C 478.32303,237.22481 475.94511,241.57942 471.87372,244.55329 C 468.81725,246.65388 465.68998,247.59793 461.4121,247.59793 C 455.84199,247.59793 451.08618,246.14641 446.46605,243.10174 L 448.91477,238.45804 C 452.7855,241.43191 456.72708,242.7359 461.4121,242.7359 C 464.94059,242.7359 466.84649,242.15766 468.81725,240.5645 C 471.05946,238.75304 472.14516,236.35743 472.14516,233.45435 C 472.14516,229.02899 469.42503,225.98433 463.79002,224.16693 L 459.10499,222.64459 C 454.892,221.26978 452.64981,220.25486 450.81476,218.21921 C 448.91477,216.04189 447.89398,213.28636 447.89398,210.09416 C 447.89398,201.60922 453.94202,195.80897 462.97573,195.80897 C 467.99708,195.80897 472.6172,197.40211 477.03081,200.5943 z" id="path1087" style="fill:none;stroke:#00519e;stroke-width:0.70806378;stroke-linecap:butt;stroke-linejoin:miter;stroke-miterlimit:4;stroke-dasharray:none;stroke-opacity:1"/>
      <path d="M 489.05017,196.89467 L 494.62027,196.89467 L 494.62027,241.65021 L 513.02996,241.65021 L 512.28061,246.65388 L 489.05017,246.65388 L 489.05017,196.89467 z" id="path1089" style="fill:#00519e;fill-opacity:1;fill-rule:nonzero;stroke:none"/>
      <path d="M 489.05017,196.89467 L 494.62027,196.89467 L 494.62027,241.65021 L 513.02996,241.65021 L 512.28061,246.65388 L 489.05017,246.65388 L 489.05017,196.89467 z" id="path1099" style="fill:none;stroke:#00519e;stroke-width:0.70806378;stroke-linecap:butt;stroke-linejoin:miter;stroke-miterlimit:4;stroke-dasharray:none;stroke-opacity:1"/>
      <path d="M 542.84532,196.89467 L 558.26344,246.65388 L 551.94395,246.65388 L 547.53035,231.34788 L 530.14149,231.34788 L 525.65708,246.65388 L 520.02206,246.65388 L 535.57589,196.89467 L 542.84532,196.89467 z M 531.70515,226.49175 L 546.10242,226.49175 C 546.10242,226.49175 542.43819,214.08883 541.21679,209.80503 L 538.9746,202.11665 L 536.66159,209.4451 C 536.39017,210.46002 531.70515,226.49175 531.70515,226.49175" id="path1101" style="fill:#00519e;fill-opacity:1;fill-rule:nonzero;stroke:none"/>
      <path d="M 542.84532,196.89467 L 558.26344,246.65388 L 551.94395,246.65388 L 547.53035,231.34788 L 530.14149,231.34788 L 525.65708,246.65388 L 520.02206,246.65388 L 535.57589,196.89467 L 542.84532,196.89467 z M 531.70515,226.49175 L 546.10242,226.49175 C 546.10242,226.49175 542.43819,214.08883 541.21679,209.80503 L 538.9746,202.11665 L 536.66159,209.4451 C 536.39017,210.46002 531.70515,226.49175 531.70515,226.49175 z" id="path1111" style="fill:none;stroke:#00519e;stroke-width:0.70806378;stroke-linecap:butt;stroke-linejoin:miter;stroke-miterlimit:4;stroke-dasharray:none;stroke-opacity:1"/>
      <path d="M 568.44774,196.89467 L 573.94704,196.89467 L 573.94704,228.73985 C 573.94704,232.15036 574.15355,234.97671 574.42497,236.35743 C 575.23924,240.27539 578.63796,242.44679 583.86585,242.44679 C 587.73658,242.44679 590.65734,241.36107 592.08527,239.33132 C 593.51319,237.29561 593.84952,235.48415 593.84952,230.84044 L 593.84952,196.89467 L 599.35472,196.89467 L 599.35472,231.49539 C 599.35472,238.60553 598.67026,240.99526 595.82031,243.68 C 592.97035,246.29392 589.2294,247.52714 583.59443,247.52714 C 576.39577,247.52714 571.97626,245.06072 569.80486,240.3462 C 568.78407,238.16889 568.44774,237.154 568.44774,231.64289 L 568.44774,196.89467" id="path1113" style="fill:#00519e;fill-opacity:1;fill-rule:nonzero;stroke:none"/>
      <path d="M 568.44774,196.89467 L 573.94704,196.89467 L 573.94704,228.73985 C 573.94704,232.15036 574.15355,234.97671 574.42497,236.35743 C 575.23924,240.27539 578.63796,242.44679 583.86585,242.44679 C 587.73658,242.44679 590.65734,241.36107 592.08527,239.33132 C 593.51319,237.29561 593.84952,235.48415 593.84952,230.84044 L 593.84952,196.89467 L 599.35472,196.89467 L 599.35472,231.49539 C 599.35472,238.60553 598.67026,240.99526 595.82031,243.68 C 592.97035,246.29392 589.2294,247.52714 583.59443,247.52714 C 576.39577,247.52714 571.97626,245.06072 569.80486,240.3462 C 568.78407,238.16889 568.44774,237.154 568.44774,231.64289 L 568.44774,196.89467 z" id="path1123" style="fill:none;stroke:#00519e;stroke-width:0.70806378;stroke-linecap:butt;stroke-linejoin:miter;stroke-miterlimit:4;stroke-dasharray:none;stroke-opacity:1"/>
      <path d="M 610.2176,196.89467 L 641.05377,196.89467 L 640.71156,201.89832 L 628.07851,201.89832 L 628.07851,246.65388 L 622.71493,246.65388 L 622.71493,201.89832 L 610.2176,201.89832 L 610.2176,196.89467 z" id="path1125" style="fill:#00519e;fill-opacity:1;fill-rule:nonzero;stroke:none"/>
      <path d="M 610.2176,196.89467 L 641.05377,196.89467 L 640.71156,201.89832 L 628.07851,201.89832 L 628.07851,246.65388 L 622.71493,246.65388 L 622.71493,201.89832 L 610.2176,201.89832 L 610.2176,196.89467 z" id="path1135" style="fill:none;stroke:#00519e;stroke-width:0.70806378;stroke-linecap:butt;stroke-linejoin:miter;stroke-miterlimit:4;stroke-dasharray:none;stroke-opacity:1"/>
      <path d="M 652.12319,197.26053 L 677.58989,197.26053 L 676.8464,202.18744 L 657.75819,202.18744 L 657.75819,218.29591 L 673.71914,218.29591 L 673.71914,223.44115 L 657.75819,223.44115 L 657.75819,241.5027 L 678.26843,241.5027 L 678.26843,246.65388 L 652.12319,246.65388 L 652.12319,197.26053 z" id="path1137" style="fill:#00519e;fill-opacity:1;fill-rule:nonzero;stroke:none"/>
      <path d="M 652.12319,197.26053 L 677.58989,197.26053 L 676.8464,202.18744 L 657.75819,202.18744 L 657.75819,218.29591 L 673.71914,218.29591 L 673.71914,223.44115 L 657.75819,223.44115 L 657.75819,241.5027 L 678.26843,241.5027 L 678.26843,246.65388 L 652.12319,246.65388 L 652.12319,197.26053 z" id="path1147" style="fill:none;stroke:#00519e;stroke-width:0.70806378;stroke-linecap:butt;stroke-linejoin:miter;stroke-miterlimit:4;stroke-dasharray:none;stroke-opacity:1"/>
      <path d="M 690.42941,196.97139 L 701.29822,196.97139 C 707.67669,196.97139 710.8099,198.1987 713.04619,200.15769 C 715.15265,201.97502 717.6604,205.30883 717.6604,210.60752 C 717.6604,218.80335 712.70396,224.24365 705.30468,224.24365 L 704.6261,224.24365 C 706.79752,226.1259 708.35525,228.45071 709.31116,229.82554 C 710.26112,231.20625 711.48842,233.16526 713.11697,235.62577 C 714.81632,238.31053 720.0383,246.65388 720.0383,246.65388 L 713.04619,246.65388 C 711.96047,244.04581 711.48842,243.10174 709.44685,239.76205 C 706.5261,235.04751 703.67023,230.69882 701.15662,227.43583 C 699.32154,224.96352 698.30075,224.31445 695.99364,224.24365 L 695.99364,246.65388 L 690.42941,246.65388 L 690.42941,196.97139 z M 696.06444,201.97502 L 696.06444,220.54401 L 701.02087,220.54401 C 705.16898,220.54401 707.74748,219.81823 709.44685,218.00676 C 711.01049,216.47853 711.82475,213.79379 711.82475,210.5308 C 711.82475,207.2678 709.92479,204.07563 707.27545,202.98993 C 705.78261,202.33495 703.94756,201.97502 701.43392,201.97502 L 696.06444,201.97502" id="path1149" style="fill:#00519e;fill-opacity:1;fill-rule:nonzero;stroke:none"/>
      <path d="M 690.42941,196.97139 L 701.29822,196.97139 C 707.67669,196.97139 710.8099,198.1987 713.04619,200.15769 C 715.15265,201.97502 717.6604,205.30883 717.6604,210.60752 C 717.6604,218.80335 712.70396,224.24365 705.30468,224.24365 L 704.6261,224.24365 C 706.79752,226.1259 708.35525,228.45071 709.31116,229.82554 C 710.26112,231.20625 711.48842,233.16526 713.11697,235.62577 C 714.81632,238.31053 720.0383,246.65388 720.0383,246.65388 L 713.04619,246.65388 C 711.96047,244.04581 711.48842,243.10174 709.44685,239.76205 C 706.5261,235.04751 703.67023,230.69882 701.15662,227.43583 C 699.32154,224.96352 698.30075,224.31445 695.99364,224.24365 L 695.99364,246.65388 L 690.42941,246.65388 L 690.42941,196.97139 z M 696.06444,201.97502 L 696.06444,220.54401 L 701.02087,220.54401 C 705.16898,220.54401 707.74748,219.81823 709.44685,218.00676 C 711.01049,216.47853 711.82475,213.79379 711.82475,210.5308 C 711.82475,207.2678 709.92479,204.07563 707.27545,202.98993 C 705.78261,202.33495 703.94756,201.97502 701.43392,201.97502 L 696.06444,201.97502 z" id="path1159" style="fill:none;stroke:#00519e;stroke-width:0.70806378;stroke-linecap:butt;stroke-linejoin:miter;stroke-miterlimit:4;stroke-dasharray:none;stroke-opacity:1"/>
      <path d="M 731.31423,197.04218 L 737.7635,197.04218 L 753.25829,228.73985 C 754.94586,232.29198 757.60111,239.11298 757.60111,239.11298 C 757.60111,239.11298 757.05821,230.55132 756.98742,224.02531 L 756.78679,197.04218 L 762.29202,197.04218 L 762.29202,246.65388 L 756.44458,246.65388 L 741.50443,216.26021 C 739.32714,211.76401 737.15574,207.04949 736.20578,204.36475 C 736.54799,208.57181 736.74862,212.92641 736.81353,217.85925 L 737.09083,246.65388 L 731.31423,246.65388 L 731.31423,197.04218" id="path1161" style="fill:#00519e;fill-opacity:1;fill-rule:nonzero;stroke:none"/>
      <path d="M 731.31423,197.04218 L 737.7635,197.04218 L 753.25829,228.73985 C 754.94586,232.29198 757.60111,239.11298 757.60111,239.11298 C 757.60111,239.11298 757.05821,230.55132 756.98742,224.02531 L 756.78679,197.04218 L 762.29202,197.04218 L 762.29202,246.65388 L 756.44458,246.65388 L 741.50443,216.26021 C 739.32714,211.76401 737.15574,207.04949 736.20578,204.36475 C 736.54799,208.57181 736.74862,212.92641 736.81353,217.85925 L 737.09083,246.65388 L 731.31423,246.65388 L 731.31423,197.04218 z" id="path1171" style="fill:none;stroke:#00519e;stroke-width:0.70806378;stroke-linecap:butt;stroke-linejoin:miter;stroke-miterlimit:4;stroke-dasharray:none;stroke-opacity:1"/>
      <path d="M 488.9263,134.50246 L 495.15136,134.50246 L 495.15136,166.36531 C 495.15136,169.78171 495.38146,172.614 495.68827,173.98883 C 496.61467,177.91267 500.4559,180.08996 506.38004,180.08996 C 510.76414,180.08996 514.06842,178.99836 515.68518,176.96858 C 517.29605,174.9329 517.68545,173.12145 517.68545,168.47184 L 517.68545,134.50246 L 523.91051,134.50246 L 523.91051,169.12677 C 523.91051,176.24283 523.14344,178.63844 519.91586,181.32317 C 516.68237,183.93713 512.4517,185.17032 506.07322,185.17032 C 497.9187,185.17032 492.92093,182.7039 490.4604,177.98345 C 489.30392,175.80618 488.9263,174.79128 488.9263,169.27429 L 488.9263,134.50246 z" id="path1173" style="fill:#e2001a;fill-opacity:1;fill-rule:nonzero;stroke:none"/>
      <path d="M 488.9263,134.50246 L 495.15136,134.50246 L 495.15136,166.36531 C 495.15136,169.78171 495.38146,172.614 495.68827,173.98883 C 496.61467,177.91267 500.4559,180.08996 506.38004,180.08996 C 510.76414,180.08996 514.06842,178.99836 515.68518,176.96858 C 517.29605,174.9329 517.68545,173.12145 517.68545,168.47184 L 517.68545,134.50246 L 523.91051,134.50246 L 523.91051,169.12677 C 523.91051,176.24283 523.14344,178.63844 519.91586,181.32317 C 516.68237,183.93713 512.4517,185.17032 506.07322,185.17032 C 497.9187,185.17032 492.92093,182.7039 490.4604,177.98345 C 489.30392,175.80618 488.9263,174.79128 488.9263,169.27429 L 488.9263,134.50246 z" id="path1175" style="fill:none;stroke:#e2001a;stroke-width:0.63725746;stroke-linecap:butt;stroke-linejoin:miter;stroke-miterlimit:4;stroke-dasharray:none;stroke-opacity:1"/>
      <path d="M 532.62561,150.22147 L 537.64106,150.22147 L 549.67225,171.99446 C 550.99395,174.43137 553.05325,179.1164 553.05325,179.1164 C 553.05325,179.1164 552.62842,173.23945 552.5753,168.75503 L 552.416,150.22147 L 556.69388,150.22147 L 556.69388,184.29705 L 552.15637,184.29705 L 540.54411,163.42096 C 538.85657,160.335 537.16901,157.09559 536.42557,155.25465 C 536.69106,158.13998 536.85038,161.13157 536.90351,164.51847 L 537.11592,184.29705 L 532.62561,184.29705 L 532.62561,150.22147" id="path1177" style="fill:#00519e;fill-opacity:1;fill-rule:nonzero;stroke:none"/>
      <path d="M 532.62561,150.22147 L 537.64106,150.22147 L 549.67225,171.99446 C 550.99395,174.43137 553.05325,179.1164 553.05325,179.1164 C 553.05325,179.1164 552.62842,173.23945 552.5753,168.75503 L 552.416,150.22147 L 556.69388,150.22147 L 556.69388,184.29705 L 552.15637,184.29705 L 540.54411,163.42096 C 538.85657,160.335 537.16901,157.09559 536.42557,155.25465 C 536.69106,158.13998 536.85038,161.13157 536.90351,164.51847 L 537.11592,184.29705 L 532.62561,184.29705 L 532.62561,150.22147 z" id="path1179" style="fill:none;stroke:#00519e;stroke-width:0.70806378;stroke-linecap:butt;stroke-linejoin:miter;stroke-miterlimit:4;stroke-dasharray:none;stroke-opacity:1"/>
      <path d="M 565.03134,150.12116 L 569.25612,150.12116 L 569.25612,184.29705 L 565.03134,184.29705 L 565.03134,150.12116 z" id="path1181" style="fill:#00519e;fill-opacity:1;fill-rule:nonzero;stroke:none"/>
      <path d="M 565.03134,150.12116 L 569.25612,150.12116 L 569.25612,184.29705 L 565.03134,184.29705 L 565.03134,150.12116 z" id="path1183" style="fill:none;stroke:#00519e;stroke-width:0.70806378;stroke-linecap:butt;stroke-linejoin:miter;stroke-miterlimit:4;stroke-dasharray:none;stroke-opacity:1"/>
      <path d="M 573.42189,150.12116 L 578.11871,150.12116 L 585.77169,172.04164 C 586.82789,175.03322 587.72477,178.66791 587.88409,179.66512 C 588.09062,178.82135 588.83406,176.22511 590.09678,172.54317 L 597.856,150.12116 L 602.28731,150.12116 L 589.89027,184.29705 L 585.61239,184.29705 L 573.42189,150.12116" id="path1185" style="fill:#00519e;fill-opacity:1;fill-rule:nonzero;stroke:none"/>
      <path d="M 573.42189,150.12116 L 578.11871,150.12116 L 585.77169,172.04164 C 586.82789,175.03322 587.72477,178.66791 587.88409,179.66512 C 588.09062,178.82135 588.83406,176.22511 590.09678,172.54317 L 597.856,150.12116 L 602.28731,150.12116 L 589.89027,184.29705 L 585.61239,184.29705 L 573.42189,150.12116 z" id="path1187" style="fill:none;stroke:#00519e;stroke-width:0.70806378;stroke-linecap:butt;stroke-linejoin:miter;stroke-miterlimit:4;stroke-dasharray:none;stroke-opacity:1"/>
      <path d="M 606.67137,150.37488 L 626.46176,150.37488 L 625.87761,153.76181 L 611.0496,153.76181 L 611.0496,164.81939 L 623.45252,164.81939 L 623.45252,168.3597 L 611.0496,168.3597 L 611.0496,180.76262 L 626.9869,180.76262 L 626.9869,184.29705 L 606.67137,184.29705 L 606.67137,150.37488 z" id="path1189" style="fill:#00519e;fill-opacity:1;fill-rule:nonzero;stroke:none"/>
      <path d="M 606.67137,150.37488 L 626.46176,150.37488 L 625.87761,153.76181 L 611.0496,153.76181 L 611.0496,164.81939 L 623.45252,164.81939 L 623.45252,168.3597 L 611.0496,168.3597 L 611.0496,180.76262 L 626.9869,180.76262 L 626.9869,184.29705 L 606.67137,184.29705 L 606.67137,150.37488 z" id="path1191" style="fill:none;stroke:#00519e;stroke-width:0.70806378;stroke-linecap:butt;stroke-linejoin:miter;stroke-miterlimit:4;stroke-dasharray:none;stroke-opacity:1"/>
      <path d="M 632.89923,150.17425 L 641.34291,150.17425 C 646.30527,150.17425 648.73038,151.01804 650.47105,152.36337 C 652.11136,153.60837 654.06444,155.90369 654.06444,159.53841 C 654.06444,165.16753 650.21139,168.90845 644.45839,168.90845 L 643.92734,168.90845 C 645.61488,170.20068 646.83042,171.79382 647.56796,172.73789 C 648.31143,173.68788 649.26144,175.03322 650.52413,176.72666 C 651.84586,178.56764 655.90542,184.29705 655.90542,184.29705 L 650.47105,184.29705 C 649.62724,182.50329 649.26144,181.86013 647.67418,179.56479 C 645.40837,176.32542 643.18977,173.33974 641.23671,171.09756 C 639.81468,169.40409 639.01809,168.95567 637.22432,168.90845 L 637.22432,184.29705 L 632.89923,184.29705 L 632.89923,150.17425 z M 637.27745,153.60837 L 637.27745,166.36531 L 641.13049,166.36531 C 644.35219,166.36531 646.35835,165.86378 647.67418,164.61876 C 648.8897,163.57437 649.52105,161.72748 649.52105,159.49119 C 649.52105,157.249 648.04592,155.05402 645.98662,154.31053 C 644.82422,153.86212 643.40219,153.60837 641.4491,153.60837 L 637.27745,153.60837" id="path1193" style="fill:#00519e;fill-opacity:1;fill-rule:nonzero;stroke:none"/>
      <path d="M 632.89923,150.17425 L 641.34291,150.17425 C 646.30527,150.17425 648.73038,151.01804 650.47105,152.36337 C 652.11136,153.60837 654.06444,155.90369 654.06444,159.53841 C 654.06444,165.16753 650.21139,168.90845 644.45839,168.90845 L 643.92734,168.90845 C 645.61488,170.20068 646.83042,171.79382 647.56796,172.73789 C 648.31143,173.68788 649.26144,175.03322 650.52413,176.72666 C 651.84586,178.56764 655.90542,184.29705 655.90542,184.29705 L 650.47105,184.29705 C 649.62724,182.50329 649.26144,181.86013 647.67418,179.56479 C 645.40837,176.32542 643.18977,173.33974 641.23671,171.09756 C 639.81468,169.40409 639.01809,168.95567 637.22432,168.90845 L 637.22432,184.29705 L 632.89923,184.29705 L 632.89923,150.17425 z M 637.27745,153.60837 L 637.27745,166.36531 L 641.13049,166.36531 C 644.35219,166.36531 646.35835,165.86378 647.67418,164.61876 C 648.8897,163.57437 649.52105,161.72748 649.52105,159.49119 C 649.52105,157.249 648.04592,155.05402 645.98662,154.31053 C 644.82422,153.86212 643.40219,153.60837 641.4491,153.60837 L 637.27745,153.60837 z" id="path1195" style="fill:none;stroke:#00519e;stroke-width:0.70806378;stroke-linecap:butt;stroke-linejoin:miter;stroke-miterlimit:4;stroke-dasharray:none;stroke-opacity:1"/>
      <path d="M 683.24847,152.66429 L 681.34851,155.60274 C 677.86131,153.46086 675.64269,152.71149 672.53314,152.71149 C 667.99563,152.71149 665.30496,154.85339 665.30496,158.34061 C 665.30496,161.08435 667.04563,162.67749 671.3176,163.92252 L 675.4893,165.16753 C 678.70508,166.11748 680.45163,167.00848 681.87366,168.60752 C 683.35469,170.20068 684.24567,172.49009 684.24567,174.63196 C 684.24567,177.82417 682.40471,180.80981 679.23613,182.85733 C 676.85819,184.29705 674.4331,184.9461 671.10518,184.9461 C 666.78009,184.9461 663.08638,183.94891 659.49883,181.86013 L 661.39882,178.66791 C 664.4022,180.70951 667.46456,181.6064 671.10518,181.6064 C 673.85483,181.6064 675.32996,181.21107 676.85819,180.11356 C 678.60476,178.86855 679.44855,177.22231 679.44855,175.23382 C 679.44855,172.18915 677.33615,170.10037 672.95207,168.85535 L 669.31732,167.81096 C 666.04255,166.86098 664.30188,166.16473 662.87397,164.77219 C 661.39882,163.27345 660.60223,161.38527 660.60223,159.19029 C 660.60223,153.36057 665.30496,149.37769 672.32068,149.37769 C 676.22685,149.37769 679.81435,150.46932 683.24847,152.66429" id="path1197" style="fill:#00519e;fill-opacity:1;fill-rule:nonzero;stroke:none"/>
      <path d="M 683.24847,152.66429 L 681.34851,155.60274 C 677.86131,153.46086 675.64269,152.71149 672.53314,152.71149 C 667.99563,152.71149 665.30496,154.85339 665.30496,158.34061 C 665.30496,161.08435 667.04563,162.67749 671.3176,163.92252 L 675.4893,165.16753 C 678.70508,166.11748 680.45163,167.00848 681.87366,168.60752 C 683.35469,170.20068 684.24567,172.49009 684.24567,174.63196 C 684.24567,177.82417 682.40471,180.80981 679.23613,182.85733 C 676.85819,184.29705 674.4331,184.9461 671.10518,184.9461 C 666.78009,184.9461 663.08638,183.94891 659.49883,181.86013 L 661.39882,178.66791 C 664.4022,180.70951 667.46456,181.6064 671.10518,181.6064 C 673.85483,181.6064 675.32996,181.21107 676.85819,180.11356 C 678.60476,178.86855 679.44855,177.22231 679.44855,175.23382 C 679.44855,172.18915 677.33615,170.10037 672.95207,168.85535 L 669.31732,167.81096 C 666.04255,166.86098 664.30188,166.16473 662.87397,164.77219 C 661.39882,163.27345 660.60223,161.38527 660.60223,159.19029 C 660.60223,153.36057 665.30496,149.37769 672.32068,149.37769 C 676.22685,149.37769 679.81435,150.46932 683.24847,152.66429 z" id="path1199" style="fill:none;stroke:#00519e;stroke-width:0.70806378;stroke-linecap:butt;stroke-linejoin:miter;stroke-miterlimit:4;stroke-dasharray:none;stroke-opacity:1"/>
      <path d="M 691.37942,150.12116 L 695.59831,150.12116 L 695.59831,184.29705 L 691.37942,184.29705 L 691.37942,150.12116 z" id="path1201" style="fill:#00519e;fill-opacity:1;fill-rule:nonzero;stroke:none"/>
      <path d="M 691.37942,150.12116 L 695.59831,150.12116 L 695.59831,184.29705 L 691.37942,184.29705 L 691.37942,150.12116 z" id="path1203" style="fill:none;stroke:#00519e;stroke-width:0.70806378;stroke-linecap:butt;stroke-linejoin:miter;stroke-miterlimit:4;stroke-dasharray:none;stroke-opacity:1"/>
      <path d="M 700.1889,150.12116 L 724.14507,150.12116 L 723.88546,153.56118 L 714.06697,153.56118 L 714.06697,184.29705 L 709.90119,184.29705 L 709.90119,153.56118 L 700.1889,153.56118 L 700.1889,150.12116 z" id="path1205" style="fill:#00519e;fill-opacity:1;fill-rule:nonzero;stroke:none"/>
      <path d="M 700.1889,150.12116 L 724.14507,150.12116 L 723.88546,153.56118 L 714.06697,153.56118 L 714.06697,184.29705 L 709.90119,184.29705 L 709.90119,153.56118 L 700.1889,153.56118 L 700.1889,150.12116 z" id="path1207" style="fill:none;stroke:#00519e;stroke-width:0.70806378;stroke-linecap:butt;stroke-linejoin:miter;stroke-miterlimit:4;stroke-dasharray:none;stroke-opacity:1"/>
      <path d="M 739.66347,150.12116 L 751.64153,184.29705 L 746.73822,184.29705 L 743.31,173.78819 L 729.79779,173.78819 L 726.31648,184.29705 L 721.93238,184.29705 L 734.01664,150.12116 L 739.66347,150.12116 z M 731.32601,142.85171 C 732.85426,142.85171 734.06976,143.99641 734.06976,145.38894 C 734.06976,146.83457 732.90736,148.0324 731.37913,148.0324 C 729.85088,148.0324 728.62948,146.83457 728.62948,145.38894 C 728.62948,143.99641 729.85088,142.85171 731.32601,142.85171 M 731.0074,170.44848 L 742.19478,170.44848 C 742.19478,170.44848 739.35074,161.92811 738.39485,158.98967 L 736.65419,153.70869 L 734.86044,158.74184 C 734.64804,159.43812 731.0074,170.44848 731.0074,170.44848 M 742.2538,142.85171 C 743.72305,142.85171 744.99167,143.99641 744.99167,145.38894 C 744.99167,146.83457 743.78205,148.0324 742.301,148.0324 C 740.77277,148.0324 739.50415,146.83457 739.50415,145.38894 C 739.50415,143.99641 740.72559,142.85171 742.2538,142.85171" id="path1209" style="fill:#00519e;fill-opacity:1;fill-rule:nonzero;stroke:none"/>
      <path d="M 739.66347,150.12116 L 751.64153,184.29705 L 746.73822,184.29705 L 743.31,173.78819 L 729.79779,173.78819 L 726.31648,184.29705 L 721.93238,184.29705 L 734.01664,150.12116 L 739.66347,150.12116 z M 731.32601,142.85171 C 732.85426,142.85171 734.06976,143.99641 734.06976,145.38894 C 734.06976,146.83457 732.90736,148.0324 731.37913,148.0324 C 729.85088,148.0324 728.62948,146.83457 728.62948,145.38894 C 728.62948,143.99641 729.85088,142.85171 731.32601,142.85171 z M 731.0074,170.44848 L 742.19478,170.44848 C 742.19478,170.44848 739.35074,161.92811 738.39485,158.98967 L 736.65419,153.70869 L 734.86044,158.74184 C 734.64804,159.43812 731.0074,170.44848 731.0074,170.44848 z M 742.2538,142.85171 C 743.72305,142.85171 744.99167,143.99641 744.99167,145.38894 C 744.99167,146.83457 743.78205,148.0324 742.301,148.0324 C 740.77277,148.0324 739.50415,146.83457 739.50415,145.38894 C 739.50415,143.99641 740.72559,142.85171 742.2538,142.85171 z" id="path1211" style="fill:none;stroke:#00519e;stroke-width:0.70806378;stroke-linecap:butt;stroke-linejoin:miter;stroke-miterlimit:4;stroke-dasharray:none;stroke-opacity:1"/>
      <path d="M 749.37574,150.12116 L 773.33778,150.12116 L 773.06638,153.56118 L 763.25379,153.56118 L 763.25379,184.29705 L 759.08213,184.29705 L 759.08213,153.56118 L 749.37574,153.56118 L 749.37574,150.12116 z" id="path1213" style="fill:#00519e;fill-opacity:1;fill-rule:nonzero;stroke:none"/>
      <path d="M 749.37574,150.12116 L 773.33778,150.12116 L 773.06638,153.56118 L 763.25379,153.56118 L 763.25379,184.29705 L 759.08213,184.29705 L 759.08213,153.56118 L 749.37574,153.56118 L 749.37574,150.12116 z" id="path1223" style="fill:none;stroke:#00519e;stroke-width:0.70806378;stroke-linecap:butt;stroke-linejoin:miter;stroke-miterlimit:4;stroke-dasharray:none;stroke-opacity:1"/>
    </g>
  </g>
</svg>